<svg xmlns="http://www.w3.org/2000/svg" xmlns:xlink="http://www.w3.org/1999/xlink" width="500" zoomAndPan="magnify" viewBox="0 0 375 374.999991" height="500" preserveAspectRatio="xMidYMid meet" version="1.0"><defs><g/><clipPath id="fbcd6abcdc"><path d="M 73 131.453125 L 121 131.453125 L 121 167 L 73 167 Z M 73 131.453125 " clip-rule="nonzero"/></clipPath><clipPath id="9470a9edfc"><path d="M 45.953125 183 L 93 183 L 93 230 L 45.953125 230 Z M 45.953125 183 " clip-rule="nonzero"/></clipPath><clipPath id="22a7b18ccd"><path d="M 86 182 L 149.453125 182 L 149.453125 243.203125 L 86 243.203125 Z M 86 182 " clip-rule="nonzero"/></clipPath></defs><g clip-path="url(#fbcd6abcdc)"><path fill="#ffffff" d="M 74.207031 161.363281 C 73.792969 161.160156 73.398438 160.953125 73.019531 160.742188 C 74.132812 155.464844 75.503906 148.917969 76.667969 143.191406 C 76.796875 142.5625 76.933594 141.957031 77.082031 141.382812 C 78.039062 137.621094 79.363281 135.082031 80.804688 133.585938 C 82.578125 131.746094 84.519531 131.488281 86.148438 132.488281 C 86.832031 132.910156 87.457031 133.546875 87.996094 134.382812 C 88.375 134.976562 88.84375 135.515625 89.363281 136.011719 C 90.3125 136.910156 91.382812 137.609375 92.53125 138.101562 C 95.375 139.332031 98.648438 139.3125 101.480469 138.039062 C 102.570312 137.546875 103.589844 136.871094 104.5 136.011719 C 105.019531 135.515625 105.484375 134.976562 105.867188 134.382812 C 106.46875 133.449219 107.183594 132.761719 107.957031 132.351562 C 109.417969 131.582031 111.101562 131.796875 112.679688 133.226562 C 114.203125 134.601562 115.625 137.09375 116.660156 140.914062 C 116.851562 141.625 117.03125 142.386719 117.195312 143.191406 C 118.394531 149.113281 119.820312 155.914062 120.957031 161.28125 C 120.902344 161.308594 120.851562 161.335938 120.796875 161.363281 C 114.628906 164.40625 106.355469 166.085938 97.503906 166.085938 C 88.652344 166.085938 80.375 164.40625 74.207031 161.363281 Z M 74.207031 161.363281 " fill-opacity="1" fill-rule="nonzero"/></g><path fill="#ffffff" d="M 138.214844 176.042969 C 138.214844 182.511719 119.730469 187.75 96.929688 187.75 C 74.132812 187.75 55.648438 182.511719 55.648438 176.042969 C 55.648438 172.347656 61.699219 169.046875 71.148438 166.898438 C 71.238281 166.945312 71.320312 166.988281 71.410156 167.03125 C 78.433594 170.496094 87.699219 172.40625 97.503906 172.40625 C 107.253906 172.40625 116.480469 170.519531 123.488281 167.082031 C 132.492188 169.226562 138.214844 172.445312 138.214844 176.042969 Z M 138.214844 176.042969 " fill-opacity="1" fill-rule="nonzero"/><g clip-path="url(#9470a9edfc)"><path fill="#ffffff" d="M 92.769531 222.941406 C 92.3125 223.621094 91.867188 224.300781 91.4375 224.996094 C 90.484375 226.519531 89.636719 227.992188 88.890625 229.398438 L 58.039062 213.800781 L 68.609375 209.398438 L 45.953125 196.597656 L 57.789062 183.753906 C 60.085938 185.152344 63.128906 186.390625 66.851562 187.449219 C 66.886719 187.457031 66.917969 187.46875 66.949219 187.476562 C 69.691406 202.09375 82.492188 214.820312 92.769531 222.941406 Z M 92.769531 222.941406 " fill-opacity="1" fill-rule="nonzero"/></g><g clip-path="url(#22a7b18ccd)"><path fill="#ffffff" d="M 127.011719 210.84375 L 138.96875 213.300781 C 138.96875 213.300781 106.371094 217.453125 86.734375 243.503906 C 86.734375 243.503906 92.953125 214.734375 125.542969 199.070312 C 126.519531 198.601562 127.136719 197.605469 127.136719 196.519531 L 127.136719 187.410156 C 131.199219 186.25 134.441406 184.871094 136.777344 183.300781 C 137.210938 183.011719 137.609375 182.71875 137.972656 182.421875 L 149.792969 196.601562 Z M 127.011719 210.84375 " fill-opacity="1" fill-rule="nonzero"/></g><path fill="#ffffff" d="M 94.101562 193.011719 C 93.734375 196.378906 88.546875 198.570312 82.519531 197.902344 C 76.492188 197.234375 71.90625 193.964844 72.28125 190.597656 C 72.347656 190 72.566406 189.429688 72.925781 188.914062 C 79.097656 190.121094 86.238281 190.835938 93.746094 190.996094 C 94.050781 191.648438 94.179688 192.332031 94.101562 193.011719 Z M 94.101562 193.011719 " fill-opacity="1" fill-rule="nonzero"/><path fill="#ffffff" d="M 113.230469 197.902344 C 107.203125 198.570312 102.011719 196.378906 101.640625 193.011719 C 101.566406 192.308594 101.703125 191.609375 102.027344 190.941406 C 109.503906 190.683594 116.550781 189.875 122.574219 188.578125 C 123.074219 189.183594 123.386719 189.863281 123.46875 190.597656 C 123.839844 193.964844 119.253906 197.234375 113.230469 197.902344 Z M 113.230469 197.902344 " fill-opacity="1" fill-rule="nonzero"/><g fill="#ffffff" fill-opacity="1"><g transform="translate(163.606415, 202.124987)"><g><path d="M 8.515625 -28.96875 L 8.515625 0 L 2.234375 0 L 2.234375 -28.96875 Z M 8.515625 -28.96875 "/></g></g></g><g fill="#ffffff" fill-opacity="1"><g transform="translate(174.532089, 202.124987)"><g><path d="M 18.859375 0 L 12.578125 0 L 12.578125 -24.046875 C 12.578125 -24.285156 12.492188 -24.492188 12.328125 -24.671875 C 12.171875 -24.847656 11.972656 -24.9375 11.734375 -24.9375 L 9.3125 -24.9375 C 9.070312 -24.9375 8.867188 -24.847656 8.703125 -24.671875 C 8.546875 -24.492188 8.46875 -24.285156 8.46875 -24.046875 L 8.46875 0 L 2.1875 0 L 2.1875 -23.515625 C 2.1875 -27.453125 4.039062 -29.421875 7.75 -29.421875 L 13.296875 -29.421875 C 17.003906 -29.421875 18.859375 -27.453125 18.859375 -23.515625 Z M 18.859375 0 "/></g></g></g><g fill="#ffffff" fill-opacity="1"><g transform="translate(195.353549, 202.124987)"><g><path d="M 13.03125 -4.75 L 13.03125 -9.21875 L 18.984375 -9.21875 L 18.984375 -5.46875 C 18.984375 -1.519531 17.132812 0.453125 13.4375 0.453125 L 7.796875 0.453125 C 4.085938 0.453125 2.234375 -1.519531 2.234375 -5.46875 L 2.234375 -23.515625 C 2.234375 -27.453125 4.085938 -29.421875 7.796875 -29.421875 L 13.4375 -29.421875 C 17.132812 -29.421875 18.984375 -27.453125 18.984375 -23.515625 L 18.984375 -20.78125 L 13.03125 -20.78125 L 13.03125 -24.265625 C 13.03125 -24.503906 12.945312 -24.710938 12.78125 -24.890625 C 12.613281 -25.078125 12.414062 -25.171875 12.1875 -25.171875 L 9.359375 -25.171875 C 9.117188 -25.171875 8.914062 -25.078125 8.75 -24.890625 C 8.59375 -24.710938 8.515625 -24.503906 8.515625 -24.265625 L 8.515625 -4.75 C 8.515625 -4.507812 8.59375 -4.296875 8.75 -4.109375 C 8.914062 -3.929688 9.117188 -3.84375 9.359375 -3.84375 L 12.1875 -3.84375 C 12.414062 -3.84375 12.613281 -3.929688 12.78125 -4.109375 C 12.945312 -4.296875 13.03125 -4.507812 13.03125 -4.75 Z M 13.03125 -4.75 "/></g></g></g><g fill="#ffffff" fill-opacity="1"><g transform="translate(215.861566, 202.124987)"><g><path d="M 19.296875 -23.515625 L 19.296875 -5.46875 C 19.296875 -1.519531 17.445312 0.453125 13.75 0.453125 L 7.796875 0.453125 C 4.085938 0.453125 2.234375 -1.519531 2.234375 -5.46875 L 2.234375 -23.515625 C 2.234375 -27.453125 4.085938 -29.421875 7.796875 -29.421875 L 13.75 -29.421875 C 17.445312 -29.421875 19.296875 -27.453125 19.296875 -23.515625 Z M 13.03125 -4.75 L 13.03125 -24.265625 C 13.03125 -24.503906 12.945312 -24.710938 12.78125 -24.890625 C 12.613281 -25.078125 12.414062 -25.171875 12.1875 -25.171875 L 9.359375 -25.171875 C 9.117188 -25.171875 8.914062 -25.078125 8.75 -24.890625 C 8.59375 -24.710938 8.515625 -24.503906 8.515625 -24.265625 L 8.515625 -4.75 C 8.515625 -4.507812 8.59375 -4.296875 8.75 -4.109375 C 8.914062 -3.929688 9.117188 -3.84375 9.359375 -3.84375 L 12.1875 -3.84375 C 12.414062 -3.84375 12.613281 -3.929688 12.78125 -4.109375 C 12.945312 -4.296875 13.03125 -4.507812 13.03125 -4.75 Z M 13.03125 -4.75 "/></g></g></g><g fill="#ffffff" fill-opacity="1"><g transform="translate(237.533791, 202.124987)"><g><path d="M 10.703125 -11.515625 L 10.703125 -16.125 L 18.984375 -16.125 L 18.984375 -5.46875 C 18.984375 -1.519531 17.132812 0.453125 13.4375 0.453125 L 7.796875 0.453125 C 4.085938 0.453125 2.234375 -1.519531 2.234375 -5.46875 L 2.234375 -23.515625 C 2.234375 -27.453125 4.085938 -29.421875 7.796875 -29.421875 L 13.4375 -29.421875 C 17.132812 -29.421875 18.984375 -27.453125 18.984375 -23.515625 L 18.984375 -20.78125 L 13.03125 -20.78125 L 13.03125 -24.265625 C 13.03125 -24.503906 12.945312 -24.710938 12.78125 -24.890625 C 12.613281 -25.078125 12.414062 -25.171875 12.1875 -25.171875 L 9.359375 -25.171875 C 9.117188 -25.171875 8.914062 -25.078125 8.75 -24.890625 C 8.59375 -24.710938 8.515625 -24.503906 8.515625 -24.265625 L 8.515625 -4.75 C 8.515625 -4.507812 8.59375 -4.296875 8.75 -4.109375 C 8.914062 -3.929688 9.117188 -3.84375 9.359375 -3.84375 L 12.1875 -3.84375 C 12.414062 -3.84375 12.613281 -3.929688 12.78125 -4.109375 C 12.945312 -4.296875 13.03125 -4.507812 13.03125 -4.75 L 13.03125 -11.515625 Z M 10.703125 -11.515625 "/></g></g></g><g fill="#ffffff" fill-opacity="1"><g transform="translate(257.728366, 202.124987)"><g><path d="M 18.859375 0 L 12.578125 0 L 12.578125 -24.046875 C 12.578125 -24.285156 12.492188 -24.492188 12.328125 -24.671875 C 12.171875 -24.847656 11.972656 -24.9375 11.734375 -24.9375 L 9.3125 -24.9375 C 9.070312 -24.9375 8.867188 -24.847656 8.703125 -24.671875 C 8.546875 -24.492188 8.46875 -24.285156 8.46875 -24.046875 L 8.46875 0 L 2.1875 0 L 2.1875 -23.515625 C 2.1875 -27.453125 4.039062 -29.421875 7.75 -29.421875 L 13.296875 -29.421875 C 17.003906 -29.421875 18.859375 -27.453125 18.859375 -23.515625 Z M 18.859375 0 "/></g></g></g><g fill="#ffffff" fill-opacity="1"><g transform="translate(278.549825, 202.124987)"><g><path d="M 8.515625 -28.96875 L 8.515625 0 L 2.234375 0 L 2.234375 -28.96875 Z M 8.515625 -28.96875 "/></g></g></g><g fill="#ffffff" fill-opacity="1"><g transform="translate(289.475499, 202.124987)"><g><path d="M 0.578125 -23.640625 L 0.578125 -28.96875 L 16.25 -28.96875 L 16.25 -23.640625 L 11.546875 -23.640625 L 11.546875 0 L 5.28125 0 L 5.28125 -23.640625 Z M 0.578125 -23.640625 "/></g></g></g><g fill="#ffffff" fill-opacity="1"><g transform="translate(306.356552, 202.124987)"><g><path d="M 19.296875 -23.515625 L 19.296875 -5.46875 C 19.296875 -1.519531 17.445312 0.453125 13.75 0.453125 L 7.796875 0.453125 C 4.085938 0.453125 2.234375 -1.519531 2.234375 -5.46875 L 2.234375 -23.515625 C 2.234375 -27.453125 4.085938 -29.421875 7.796875 -29.421875 L 13.75 -29.421875 C 17.445312 -29.421875 19.296875 -27.453125 19.296875 -23.515625 Z M 13.03125 -4.75 L 13.03125 -24.265625 C 13.03125 -24.503906 12.945312 -24.710938 12.78125 -24.890625 C 12.613281 -25.078125 12.414062 -25.171875 12.1875 -25.171875 L 9.359375 -25.171875 C 9.117188 -25.171875 8.914062 -25.078125 8.75 -24.890625 C 8.59375 -24.710938 8.515625 -24.503906 8.515625 -24.265625 L 8.515625 -4.75 C 8.515625 -4.507812 8.59375 -4.296875 8.75 -4.109375 C 8.914062 -3.929688 9.117188 -3.84375 9.359375 -3.84375 L 12.1875 -3.84375 C 12.414062 -3.84375 12.613281 -3.929688 12.78125 -4.109375 C 12.945312 -4.296875 13.03125 -4.507812 13.03125 -4.75 Z M 13.03125 -4.75 "/></g></g></g></svg>